<svg width="32" height="28" viewBox="0 0 32 28" fill="none" xmlns="http://www.w3.org/2000/svg">
<path d="M16 10.8752V7.11905C16 6.7742 15.7208 6.49466 15.3759 6.49405C14.4106 6.49283 13.5131 6.01248 12.9757 5.21048L12.7691 4.90225C12.6653 4.74722 12.4975 4.64652 12.3119 4.6282C12.1221 4.61112 11.9418 4.6752 11.8096 4.80643C10.7205 5.88797 9.27606 6.48306 7.74224 6.48306C7.7395 6.48306 7.73675 6.48306 7.7337 6.48306L6.62591 6.48123H6.625C6.45929 6.48123 6.3006 6.54715 6.18341 6.66373C6.06592 6.78092 6 6.94021 6 7.10623V10.8752C6 13.6321 8.24304 15.8752 11 15.8752C13.757 15.8752 16 13.6321 16 10.8752Z" fill="#525A70"/>
<path d="M4.81874 16.4937L6.59376 16.0187L6.72498 15.9937C6.92498 15.9687 7.04999 15.8687 7.11873 15.775C5.67498 14.625 4.75 12.8562 4.75 10.875V7.10623C4.75 6.61249 4.95 6.12497 5.3 5.78123C5.65625 5.42497 6.125 5.23123 6.625 5.23123H7.73751C8.94376 5.23123 10.075 4.76874 10.9313 3.91874C11.2813 3.56874 11.75 3.37499 12.25 3.37499H12.3063L12.425 3.38125C12.9938 3.43748 13.4937 3.73747 13.8062 4.20622L14.0125 4.5125C14.3187 4.96874 14.8312 5.24374 15.375 5.24374C16.4125 5.24374 17.25 6.08748 17.25 7.11874V10.875C17.25 12.8562 16.325 14.625 14.8813 15.775C14.95 15.8687 15.075 15.9687 15.275 15.9938L15.3375 16.0062C15.3813 16.0125 15.425 16.025 15.475 16.0375L17.1813 16.4937C17.775 16.6 18.3312 16.775 18.8562 17.0187C19.3812 15.4812 19.5812 13.8438 19.4437 12.1937L19.0687 7.675C18.7187 3.51248 15.175 0.25 11 0.25C6.825 0.25 3.28126 3.51248 2.93126 7.675L2.55624 12.1937C2.41876 13.8437 2.61876 15.4812 3.14374 17.0187C3.66876 16.775 4.22498 16.6 4.81874 16.4937Z" fill="#525A70"/>
<path d="M30.9496 15.8957C31.3912 15.2775 31.625 14.5487 31.625 13.7888V12.125C31.625 11.8272 31.4147 11.5708 31.1227 11.5122L30.1516 11.3181C29.9188 11.2717 29.75 11.0654 29.75 10.828V10.25C29.75 9.90454 29.4702 9.625 29.125 9.625H25.375C25.0298 9.625 24.75 9.90454 24.75 10.25V10.828C24.75 11.0654 24.5812 11.2717 24.3481 11.3181L23.3773 11.5122C23.0853 11.5708 22.875 11.8272 22.875 12.125V13.7888C22.875 14.5487 23.1085 15.2775 23.5504 15.8957L24.0212 16.5549C24.3295 16.9865 24.3002 17.5706 23.9529 17.913C23.2678 18.5898 22.875 19.5298 22.875 20.4929V21.5C22.875 21.8455 23.1548 22.125 23.5 22.125H31C31.3452 22.125 31.625 21.8455 31.625 21.5V20.3416C31.625 19.4724 31.2475 18.6155 30.5621 17.9282C30.2029 17.5681 30.1568 17.006 30.4525 16.5916L30.9496 15.8957Z" fill="#525A70"/>
<path d="M25.375 27.125C25.375 27.4687 25.6563 27.75 26 27.75H28.5C28.8437 27.75 29.125 27.4687 29.125 27.125V23.375H25.375V27.125Z" fill="#525A70"/>
<path d="M11 19.0002C12.5677 19.0002 14.0096 18.3289 15.0257 17.217C14.5259 17.1242 14.1019 16.8475 13.825 16.4502C12.975 16.8815 12.0187 17.1252 11 17.1252C9.98124 17.1252 9.02501 16.8815 8.17498 16.4502C7.89807 16.8475 7.4741 17.1242 6.9743 17.217C7.99042 18.3289 9.4323 19.0002 11 19.0002Z" fill="#525A70"/>
<path d="M7.25 24C5.52698 24 4.125 25.402 4.125 27.125C4.125 27.339 4.14698 27.548 4.18817 27.75H10.3118C10.353 27.548 10.375 27.339 10.375 27.125C10.375 25.402 8.97302 24 7.25 24Z" fill="#525A70"/>
<path d="M16.9125 17.7187L16.3654 17.5713C15.1166 19.2346 13.1492 20.25 11 20.25C8.85076 20.25 6.88344 19.2346 5.63459 17.5713L5.08748 17.7187C2.35624 18.1687 0.375 20.4999 0.375 23.275V27.125C0.375 27.4687 0.656256 27.75 1 27.75H2.92494C2.89544 27.5453 2.875 27.3377 2.875 27.125C2.875 24.7129 4.83759 22.75 7.25 22.75C8.84241 22.75 10.2347 23.608 11 24.8832C11.7653 23.608 13.1576 22.75 14.75 22.75C17.1624 22.75 19.125 24.7129 19.125 27.125C19.125 27.3377 19.1046 27.5453 19.0751 27.75H21C21.3437 27.75 21.625 27.4687 21.625 27.125V23.275C21.625 20.4999 19.6438 18.1687 16.9125 17.7187Z" fill="#525A70"/>
<path d="M14.75 24C13.027 24 11.625 25.402 11.625 27.125C11.625 27.339 11.647 27.548 11.6882 27.75H17.8118C17.853 27.548 17.875 27.339 17.875 27.125C17.875 25.402 16.473 24 14.75 24Z" fill="#525A70"/>
</svg>
