<svg width="32" height="30" viewBox="0 0 32 30" fill="none" xmlns="http://www.w3.org/2000/svg">
<path d="M18.1875 15.6125C17.5313 16.525 17.6375 17.7687 18.425 18.5625C18.875 19.0125 19.125 19.5562 19.125 20.0937V20.625H12.875V20.2438C12.875 19.6125 13.1312 18.9938 13.5812 18.55C14.3625 17.7813 14.45 16.5062 13.7875 15.5812L13.3188 14.9187C13.025 14.5125 12.875 14.0375 12.875 13.5375V12.3875L13.3438 12.2937C14.1438 12.1375 14.725 11.4375 14.75 10.625H17.25C17.275 11.4375 17.8562 12.1375 18.6562 12.2937L19.125 12.3875V13.5375C19.125 14.0375 18.9688 14.5125 18.6812 14.9188L18.1875 15.6125Z" fill="#525A70"/>
<path d="M16.625 21.875H15.375V25.5026L16 25.1715L16.625 25.5026V21.875Z" fill="#525A70"/>
<path d="M31.5938 11.4122C31.5206 11.187 31.3253 11.0222 31.0903 10.988L21.0512 9.51825L16.5612 0.35016C16.3512 -0.0783086 15.6487 -0.0783086 15.4388 0.35016L10.9481 9.51825C10.9481 9.51825 0.937842 10.9838 0.909398 10.988C0.406967 11.0615 0.200555 11.6968 0.562049 12.0524L7.82889 19.1905C7.82889 19.1905 6.11976 29.2313 6.11321 29.2697C6.02732 29.7743 6.57164 30.1664 7.02201 29.9272L14.125 26.1646V21.8748H12.25C11.9048 21.8748 11.625 21.5953 11.625 21.2498V20.2427C11.625 19.2796 12.0177 18.3397 12.7029 17.6628C13.0501 17.3204 13.0794 16.7363 12.7712 16.3047L12.3003 15.6456C11.8584 15.0273 11.625 14.2985 11.625 13.5386V11.8748C11.625 11.577 11.8352 11.3206 12.1273 11.262L13.0981 11.0679C13.3312 11.0215 13.5 10.8152 13.5 10.5778V9.99982C13.5 9.65436 13.7798 9.37482 14.125 9.37482H17.875C18.2204 9.37482 18.5 9.65436 18.5 9.99982V10.5778C18.5 10.8152 18.669 11.0215 18.9016 11.0679L19.8727 11.262C20.1644 11.3206 20.375 11.577 20.375 11.8748V13.5386C20.375 14.2985 20.1412 15.0273 19.6993 15.6456L19.2025 16.3414C18.9065 16.7558 18.9529 17.3173 19.3124 17.678C19.9978 18.3659 20.375 19.2228 20.375 20.0914V21.2498C20.375 21.5953 20.0954 21.8748 19.75 21.8748H17.875V26.1645L24.9784 29.9272C25.4253 30.1655 25.9717 29.7709 25.8864 29.2698L24.1707 19.1905L31.4382 12.0524C31.6073 11.8858 31.6677 11.638 31.5938 11.4122Z" fill="#525A70"/>
</svg>
