<svg width="32" height="32" viewBox="0 0 32 32" fill="none" xmlns="http://www.w3.org/2000/svg">
<path d="M31 29.125H1C0.654806 29.125 0.375 29.4048 0.375 29.75V31C0.375 31.3452 0.654806 31.625 1 31.625H31C31.3452 31.625 31.625 31.3452 31.625 31V29.75C31.625 29.4048 31.3452 29.125 31 29.125Z" fill="#525A70"/>
<path d="M19.125 16.0916C19.125 15.5557 18.8772 15.0125 18.4271 14.5608C17.6351 13.7667 17.5335 12.5277 18.1854 11.6152L18.6825 10.9194C18.9721 10.5142 19.125 10.0369 19.125 9.53882V8.38769L18.6566 8.2937C17.857 8.1344 17.2726 7.43677 17.2506 6.625H14.7494C14.7274 7.43677 14.143 8.1344 13.3431 8.2937L12.875 8.38769V9.53882C12.875 10.0369 13.0279 10.5142 13.3175 10.9194L13.7881 11.5786C14.4497 12.5045 14.3609 13.7832 13.5812 14.5529C13.1323 14.996 12.875 15.6118 12.875 16.2429V16.625H19.125V16.0916Z" fill="#525A70"/>
<path d="M7.25 3.5C7.25 3.15454 7.52984 2.875 7.875 2.875H24.125C24.4702 2.875 24.75 3.15454 24.75 3.5V27.875H27.25V1C27.25 0.654544 26.9702 0.375 26.625 0.375H5.375C5.02984 0.375 4.75 0.654544 4.75 1V27.875H7.25V3.5Z" fill="#525A70"/>
<path d="M11.625 21C11.9702 21 12.25 20.7202 12.25 20.375C12.25 20.0298 11.9702 19.75 11.625 19.75C11.2798 19.75 11 20.0298 11 20.375C11 20.7202 11.2798 21 11.625 21Z" fill="#525A70"/>
<path d="M23.5 27.875V4.125H8.5V27.875H23.5ZM11.625 16.2429C11.625 15.2798 12.0178 14.3398 12.7029 13.663C13.0502 13.3206 13.0795 12.7365 12.7712 12.3049L12.3004 11.6457C11.8585 11.0275 11.625 10.2987 11.625 9.53882V7.875C11.625 7.57715 11.8353 7.3208 12.1273 7.26221L13.0981 7.06811C13.3312 7.02173 13.5 6.81543 13.5 6.578V6C13.5 5.65454 13.7798 5.375 14.125 5.375H17.875C18.2202 5.375 18.5 5.65454 18.5 6V6.578C18.5 6.81543 18.6688 7.02173 18.9016 7.06811L19.8727 7.26221C20.1647 7.3208 20.375 7.57715 20.375 7.875V9.53882C20.375 10.2987 20.1415 11.0275 19.7 11.6457L19.2025 12.3416C18.9068 12.756 18.9529 13.3181 19.3121 13.6782C19.9975 14.3655 20.375 15.2224 20.375 16.0916V17.25C20.375 17.5955 20.0952 17.875 19.75 17.875H12.25C11.9048 17.875 11.625 17.5955 11.625 17.25V16.2429ZM11.625 18.5C12.6589 18.5 13.5 19.3411 13.5 20.375C13.5 21.4089 12.6589 22.25 11.625 22.25C10.5911 22.25 9.75 21.4089 9.75 20.375C9.75 19.3411 10.5911 18.5 11.625 18.5Z" fill="#525A70"/>
</svg>
