<svg width="32" height="32" viewBox="0 0 32 32" fill="none" xmlns="http://www.w3.org/2000/svg">
<path d="M22.25 0.375C20.8687 0.375 19.75 1.49374 19.75 2.875H24.75C24.75 1.49374 23.6313 0.375 22.25 0.375Z" fill="#525A70"/>
<path d="M22.25 9.125C19.8376 9.125 17.875 11.0876 17.875 13.5C17.875 15.9124 19.8376 17.875 22.25 17.875C24.6624 17.875 26.625 15.9124 26.625 13.5C26.625 11.0876 24.6624 9.125 22.25 9.125ZM22.875 13.5C22.875 13.6657 22.8091 13.8247 22.6919 13.9419L21.4419 15.1919C21.2114 15.4223 20.8067 15.4405 20.5581 15.1919C20.314 14.9478 20.314 14.5522 20.5581 14.3081L21.625 13.2412V11C21.625 10.6548 21.9048 10.375 22.25 10.375C22.5952 10.375 22.875 10.6548 22.875 11V13.5Z" fill="#525A70"/>
<path d="M30.2044 17.4386C31.1337 16.1379 31.625 14.6053 31.625 13.0068V9.125C31.625 8.82715 31.4147 8.57049 31.1227 8.51221L28.858 8.05932C27.9263 7.87286 27.25 7.04798 27.25 6.09796V4.75C27.25 4.40484 26.9702 4.125 26.625 4.125H17.875C17.5298 4.125 17.25 4.40484 17.25 4.75V6.09796C17.25 7.04798 16.5737 7.87286 15.642 8.05932L13.4384 8.5H4.125C3.77984 8.5 3.5 8.77984 3.5 9.125C3.5 9.47016 3.77984 9.75 4.125 9.75H12.875V13.0068C12.875 14.6053 13.3663 16.1379 14.2953 17.4386L15.3942 18.9773C16.3491 20.3137 16.2408 22.1395 15.1421 23.2244C14.0369 24.3161 13.2976 25.7347 13.0111 27.25H4.125C3.77984 27.25 3.5 27.5298 3.5 27.875C3.5 28.2202 3.77984 28.5 4.125 28.5H12.8826C12.8816 28.55 12.875 28.5995 12.875 28.6495V31C12.875 31.3452 13.1548 31.625 13.5 31.625H31C31.3452 31.625 31.625 31.3452 31.625 31V28.2968C31.625 26.4913 30.8306 24.7009 29.3884 23.2546C28.2617 22.1246 28.117 20.3616 29.0447 19.0627L30.2044 17.4386ZM22.25 19.125C19.1485 19.125 16.625 16.6015 16.625 13.5C16.625 10.3985 19.1485 7.875 22.25 7.875C25.3515 7.875 27.875 10.3985 27.875 13.5C27.875 16.6015 25.3515 19.125 22.25 19.125Z" fill="#525A70"/>
<path d="M9.125 24.75C9.125 24.4048 8.84516 24.125 8.5 24.125H1C0.654844 24.125 0.375 24.4048 0.375 24.75C0.375 25.0952 0.654844 25.375 1 25.375H8.5C8.84516 25.375 9.125 25.0952 9.125 24.75Z" fill="#525A70"/>
<path d="M3.5 21.625C3.5 21.9702 3.77984 22.25 4.125 22.25H13.5C13.8452 22.25 14.125 21.9702 14.125 21.625C14.125 21.2798 13.8452 21 13.5 21H4.125C3.77984 21 3.5 21.2798 3.5 21.625Z" fill="#525A70"/>
<path d="M1 19.125H6C6.34516 19.125 6.625 18.8452 6.625 18.5C6.625 18.1548 6.34516 17.875 6 17.875H1C0.654844 17.875 0.375 18.1548 0.375 18.5C0.375 18.8452 0.654844 19.125 1 19.125Z" fill="#525A70"/>
<path d="M11 14.75H3.5C3.15484 14.75 2.875 15.0298 2.875 15.375C2.875 15.7202 3.15484 16 3.5 16H11C11.3452 16 11.625 15.7202 11.625 15.375C11.625 15.0298 11.3452 14.75 11 14.75Z" fill="#525A70"/>
<path d="M2.25 12.875H8.5C8.84516 12.875 9.125 12.5952 9.125 12.25C9.125 11.9048 8.84516 11.625 8.5 11.625H2.25C1.90484 11.625 1.625 11.9048 1.625 12.25C1.625 12.5952 1.90484 12.875 2.25 12.875Z" fill="#525A70"/>
</svg>
