<svg width="32" height="28" viewBox="0 0 32 28" fill="none" xmlns="http://www.w3.org/2000/svg">
<path d="M4.125 17.125H22.875V4.625H4.125V17.125ZM7.89087 14.3186L9.125 8.92954V6.5C9.125 6.15454 9.40484 5.875 9.75 5.875H17.25C17.5952 5.875 17.875 6.15454 17.875 6.5V8.92954L19.1091 14.3186C19.1815 14.6335 19.0014 14.9515 18.6944 15.0523C17.0196 15.6003 15.2599 15.875 13.5 15.875C11.74 15.875 9.98041 15.6003 8.3056 15.0522C7.99859 14.9515 7.81854 14.6335 7.89087 14.3186Z" fill="#525A70"/>
<path d="M16.625 7.125H10.375V8.375H16.625V7.125Z" fill="#525A70"/>
<path d="M16.6071 14.3097C16.9949 14.2307 17.3804 14.1401 17.7612 14.0311L16.752 9.625H15.5343L16.6071 14.3097Z" fill="#525A70"/>
<path d="M11.4657 9.625H10.248L9.23883 14.0311C9.61961 14.1401 10.0051 14.2307 10.3929 14.3097L11.4657 9.625Z" fill="#525A70"/>
<path d="M12.748 9.625L11.6302 14.5059C12.8713 14.6555 14.1287 14.6555 15.3698 14.5059L14.252 9.625H12.748Z" fill="#525A70"/>
<path d="M31 0.875H1C0.654844 0.875 0.375 1.15454 0.375 1.5V20.25C0.375 20.5955 0.654844 20.875 1 20.875H31C31.3452 20.875 31.625 20.5955 31.625 20.25V1.5C31.625 1.15454 31.3452 0.875 31 0.875ZM26.625 4C26.625 3.65454 26.9048 3.375 27.25 3.375C27.5952 3.375 27.875 3.65454 27.875 4V7.125C27.875 7.47046 27.5952 7.75 27.25 7.75C26.9048 7.75 26.625 7.47046 26.625 7.125V4ZM24.125 17.75C24.125 18.0955 23.8452 18.375 23.5 18.375H3.5C3.15484 18.375 2.875 18.0955 2.875 17.75V4C2.875 3.65454 3.15484 3.375 3.5 3.375H23.5C23.8452 3.375 24.125 3.65454 24.125 4V17.75ZM27.875 17.75C27.875 18.0955 27.5952 18.375 27.25 18.375C26.9048 18.375 26.625 18.0955 26.625 17.75V14.625C26.625 14.2795 26.9048 14 27.25 14C27.5952 14 27.875 14.2795 27.875 14.625V17.75ZM27.25 12.75C26.2161 12.75 25.375 11.9089 25.375 10.875C25.375 9.84106 26.2161 9 27.25 9C28.2839 9 29.125 9.84106 29.125 10.875C29.125 11.9089 28.2839 12.75 27.25 12.75Z" fill="#525A70"/>
<path d="M27.25 11.5C27.5952 11.5 27.875 11.2202 27.875 10.875C27.875 10.5298 27.5952 10.25 27.25 10.25C26.9048 10.25 26.625 10.5298 26.625 10.875C26.625 11.2202 26.9048 11.5 27.25 11.5Z" fill="#525A70"/>
<path d="M6.30334 22.2141L3.17834 24.0891C2.99005 24.202 2.875 24.4053 2.875 24.625C2.875 24.8447 2.99005 25.048 3.17834 25.1609L6.30334 27.0359C6.40069 27.0945 6.51178 27.125 6.625 27.125H21V22.125H6.625C6.51178 22.125 6.40069 22.1555 6.30334 22.2141Z" fill="#525A70"/>
<path d="M24.125 22.125H22.25V27.125H24.125V22.125Z" fill="#525A70"/>
<path d="M26.625 22.125H25.375V27.125H26.625C28.0035 27.125 29.125 26.0038 29.125 24.625C29.125 23.2462 28.0035 22.125 26.625 22.125Z" fill="#525A70"/>
</svg>
