<svg width="30" height="32" viewBox="0 0 30 32" fill="none" xmlns="http://www.w3.org/2000/svg">
<path d="M9.375 0.375C7.99374 0.375 6.875 1.49374 6.875 2.875H11.875C11.875 1.49374 10.7563 0.375 9.375 0.375Z" fill="#525A70"/>
<path d="M20.625 0.375C19.2437 0.375 18.125 1.49374 18.125 2.875H23.125C23.125 1.49374 22.0063 0.375 20.625 0.375Z" fill="#525A70"/>
<path d="M16.1697 19.0627L17.3294 17.4386C18.2587 16.1379 18.75 14.6053 18.75 13.0068V9.125C18.75 8.82715 18.5397 8.57049 18.2477 8.51221L15.983 8.05932C15.0513 7.87286 14.375 7.04798 14.375 6.09796V4.75C14.375 4.40484 14.0952 4.125 13.75 4.125H5C4.65484 4.125 4.375 4.40484 4.375 4.75V6.09796C4.375 7.04798 3.69873 7.87286 2.76703 8.05932L0.502319 8.51221C0.210269 8.57049 0 8.82715 0 9.125V13.0068C0 14.6053 0.491331 16.1379 1.42029 17.4386L2.51922 18.9773C3.47412 20.3137 3.36578 22.1395 2.26715 23.2244C0.826419 24.6475 0 26.6247 0 28.6495V31C0 31.3452 0.279844 31.625 0.625 31.625H8.75V30.375C8.75 30.0298 9.02984 29.75 9.375 29.75C9.72016 29.75 10 30.0298 10 30.375V31.625H18.125C18.4702 31.625 18.75 31.3452 18.75 31V28.2968C18.75 26.4913 17.9556 24.7009 16.5134 23.2546C15.3867 22.1246 15.242 20.3616 16.1697 19.0627ZM10 27.875C10 28.2202 9.72016 28.5 9.375 28.5C9.02984 28.5 8.75 28.2202 8.75 27.875V26.625C8.75 26.2798 9.02984 26 9.375 26C9.72016 26 10 26.2798 10 26.625V27.875ZM10 24.125C10 24.4702 9.72016 24.75 9.375 24.75C9.02984 24.75 8.75 24.4702 8.75 24.125V22.875C8.75 22.5298 9.02984 22.25 9.375 22.25C9.72016 22.25 10 22.5298 10 22.875V24.125ZM10 20.375C10 20.7202 9.72016 21 9.375 21C9.02984 21 8.75 20.7202 8.75 20.375V19.125C8.75 18.7798 9.02984 18.5 9.375 18.5C9.72016 18.5 10 18.7798 10 19.125V20.375ZM10 16.625C10 16.9702 9.72016 17.25 9.375 17.25C9.02984 17.25 8.75 16.9702 8.75 16.625V15.375C8.75 15.0298 9.02984 14.75 9.375 14.75C9.72016 14.75 10 15.0298 10 15.375V16.625ZM10 12.875C10 13.2202 9.72016 13.5 9.375 13.5C9.02984 13.5 8.75 13.2202 8.75 12.875V11.625C8.75 11.2798 9.02984 11 9.375 11C9.72016 11 10 11.2798 10 11.625V12.875ZM10 9.125C10 9.47016 9.72016 9.75 9.375 9.75C9.02984 9.75 8.75 9.47016 8.75 9.125V7.875C8.75 7.52984 9.02984 7.25 9.375 7.25C9.72016 7.25 10 7.52984 10 7.875V9.125Z" fill="#525A70"/>
<path d="M26.25 20.375H26.8741C26.9596 19.9153 27.1341 19.4659 27.425 19.0625L28.575 17.4375C29.5063 16.1375 30 14.6062 30 13.0062V9.125C30 8.82498 29.7875 8.56874 29.5 8.51248L27.2375 8.06249C26.3 7.875 25.625 7.04999 25.625 6.09998V4.75C25.625 4.40626 25.3437 4.125 25 4.125H16.25C15.9063 4.125 15.625 4.40626 15.625 4.75V6.09998C15.625 6.45624 15.8812 6.76248 16.2312 6.83122L18.4938 7.2875C19.3687 7.46248 20 8.23126 20 9.125V13.0062C20 14.8688 19.425 16.65 18.3437 18.1625L17.1875 19.7875C16.6125 20.5875 16.7062 21.675 17.4 22.375C19.075 24.0563 20 26.1562 20 28.2937V31C20 31.2187 19.9625 31.4312 19.8875 31.625H29.375C29.7187 31.625 30 31.3437 30 31V28.3C30 26.4875 29.2062 24.6937 27.7625 23.25C27.3002 22.7903 27.0123 22.2226 26.8863 21.625H26.25C25.9048 21.625 25.625 21.3452 25.625 21C25.625 20.6548 25.9048 20.375 26.25 20.375ZM20 21.625H18.75C18.4048 21.625 18.125 21.3452 18.125 21C18.125 20.6548 18.4048 20.375 18.75 20.375H20C20.3452 20.375 20.625 20.6548 20.625 21C20.625 21.3452 20.3452 21.625 20 21.625ZM23.75 21.625H22.5C22.1548 21.625 21.875 21.3452 21.875 21C21.875 20.6548 22.1548 20.375 22.5 20.375H23.75C24.0952 20.375 24.375 20.6548 24.375 21C24.375 21.3452 24.0952 21.625 23.75 21.625Z" fill="#525A70"/>
</svg>
